<?xml version="1.0" encoding="UTF-8"?>
<svg width="210px" height="58px" viewBox="0 0 210 58" version="1.1" xmlns="http://www.w3.org/2000/svg" xmlns:xlink="http://www.w3.org/1999/xlink">
    <!-- Generator: Sketch 45.1 (43504) - http://www.bohemiancoding.com/sketch -->
    <title>coolshop-logo</title>
    <desc>Created with Sketch.</desc>
    <defs>
        <polygon id="path-1" points="28.9173364 58 0.0162616822 58 0.0162616822 0.181588785 28.9173364 0.181588785 57.8184112 0.181588785 57.8184112 58"/>
    </defs>
    <g id="Page-1" stroke="none" stroke-width="1" fill="none" fill-rule="evenodd">
        <g id="coolshop-logo">
            <path d="M72.277486,38.7724579 L76.7798037,40.0153925 C76.4773364,41.1688879 76.0011402,42.1321215 75.3509439,42.9056355 C74.7004766,43.6791495 73.8936262,44.2629439 72.9295794,44.6564766 C71.9655327,45.0500093 70.7388598,45.2467757 69.2495607,45.2467757 C67.4423458,45.2467757 65.9663271,45.0071869 64.8209626,44.5274673 C63.6753271,44.0480187 62.6868879,43.2040374 61.8553738,41.9960654 C61.0235888,40.7883645 60.6078318,39.2424206 60.6078318,37.3582336 C60.6078318,34.8460748 61.3393364,32.915 62.8023458,31.5658224 C64.2650841,30.2166449 66.3349252,29.5420561 69.0113271,29.5420561 C71.1055607,29.5420561 72.751785,29.9288131 73.950271,30.7023271 C75.148486,31.4758411 76.0388131,32.663757 76.6209813,34.2660748 L72.084785,35.1878411 C71.9259626,34.7251963 71.7595514,34.3866822 71.5855514,34.1728411 C71.2982617,33.813729 70.9467383,33.5372804 70.5309813,33.3437664 C70.1152243,33.1507944 69.6501402,33.0537664 69.136,33.0537664 C67.9716636,33.0537664 67.0794393,33.4814486 66.4595981,34.3370841 C65.9907196,34.9715607 65.7565514,35.9684019 65.7565514,37.3273364 C65.7565514,39.0104206 66.0359813,40.1641869 66.5956542,40.7880935 C67.1550561,41.4128131 67.9413084,41.7244953 68.9546822,41.7244953 C69.9374299,41.7244953 70.6803178,41.4727103 71.1830748,40.9683271 C71.6858318,40.464486 72.0506355,39.7321682 72.277486,38.7724579" id="Fill-1" fill="#505050"/>
            <path d="M82.9297009,37.4257196 C82.9297009,38.9586542 83.2416542,40.0603832 83.8652897,40.7300935 C84.4889252,41.4000748 85.337785,41.7350654 86.4113271,41.7350654 C87.5149533,41.7350654 88.3695047,41.4068505 88.9744393,40.7509626 C89.5791028,40.0948037 89.8815701,38.9174579 89.8815701,37.2181121 C89.8815701,35.7887103 89.5658224,34.7441682 88.9345981,34.084486 C88.3033738,33.4250748 87.4469252,33.0952336 86.3660654,33.0952336 C85.3299252,33.0952336 84.4984112,33.4302243 83.8709813,34.1002056 C83.2432804,34.7699159 82.9297009,35.8784206 82.9297009,37.4257196 Z M77.7923645,37.4048505 C77.7923645,34.925486 78.5482617,32.9952243 80.0605981,31.6140654 C81.5726636,30.2326355 83.6782804,29.5420561 86.3774486,29.5420561 C89.1443738,29.5420561 91.2765514,30.2207103 92.7734393,31.5777477 C94.2705981,32.934785 95.0189065,34.8355047 95.0189065,37.2807196 C95.0189065,39.0556822 94.6917757,40.5111028 94.0380561,41.6469813 C93.3840654,42.7834019 92.4389907,43.6669533 91.2028318,44.2987196 C89.9666729,44.930757 88.4261495,45.2467757 86.5815327,45.2467757 C84.7062897,45.2467757 83.1546542,44.9743925 81.9260841,44.4285421 C80.697243,43.8829626 79.701215,43.0197383 78.937729,41.8385981 C78.173972,40.657729 77.7923645,39.1800841 77.7923645,37.4048505 L77.7923645,37.4048505 Z" id="Fill-2" fill="#505050"/>
            <path d="M101.440916,37.4257196 C101.440916,38.9586542 101.752869,40.0603832 102.376505,40.7300935 C103.000411,41.4000748 103.849,41.7350654 104.922813,41.7350654 C106.026439,41.7350654 106.88072,41.4068505 107.485654,40.7509626 C108.090318,40.0948037 108.393056,38.9174579 108.393056,37.2181121 C108.393056,35.7887103 108.077308,34.7441682 107.446084,34.084486 C106.814318,33.4250748 105.958411,33.0952336 104.87728,33.0952336 C103.841411,33.0952336 103.009626,33.4302243 102.382196,34.1002056 C101.754495,34.7699159 101.440916,35.8784206 101.440916,37.4257196 Z M96.3035794,37.4048505 C96.3035794,34.925486 97.0594766,32.9952243 98.5718131,31.6140654 C100.083879,30.2326355 102.189495,29.5420561 104.888664,29.5420561 C107.65586,29.5420561 109.787766,30.2207103 111.284925,31.5777477 C112.781813,32.934785 113.530393,34.8355047 113.530393,37.2807196 C113.530393,39.0556822 113.203262,40.5111028 112.549542,41.6469813 C111.89528,42.7834019 110.950206,43.6669533 109.714318,44.2987196 C108.477888,44.930757 106.937636,45.2467757 105.092748,45.2467757 C103.217505,45.2467757 101.665869,44.9743925 100.437299,44.4285421 C99.2084579,43.8829626 98.2127009,43.0197383 97.4489439,41.8385981 C96.6851869,40.657729 96.3035794,39.1800841 96.3035794,37.4048505 L96.3035794,37.4048505 Z" id="Fill-3" fill="#505050"/>
            <polyline id="Fill-4" fill="#505050" points="115.461467 29.8011589 120.598804 29.8011589 120.598804 41.2482991 128.616897 41.2482991 128.616897 44.9879439 115.461467 44.9879439 115.461467 29.8011589"/>
            <path d="M129.220748,39.9633551 L134.108738,39.6839252 C134.214439,40.4091963 134.430178,40.9618224 134.75514,41.3412617 C135.284187,41.9562243 136.040355,42.2635701 137.023374,42.2635701 C137.756505,42.2635701 138.321869,42.1063738 138.718654,41.7919813 C139.11571,41.4778598 139.314103,41.1133271 139.314103,40.6991963 C139.314103,40.3053925 139.125196,39.9533271 138.747383,39.642729 C138.369028,39.3315888 137.491981,39.0380654 136.116243,38.7618879 C133.862916,38.299243 132.256262,37.6845514 131.29628,36.9180841 C130.328439,36.1513458 129.844654,35.1740187 129.844654,33.9863738 C129.844654,33.2058131 130.092103,32.4686168 130.587271,31.774243 C131.082439,31.0804112 131.827224,30.5348318 132.821355,30.1377757 C133.815486,29.7407196 135.178486,29.5420561 136.909813,29.5420561 C139.034402,29.5420561 140.654336,29.9030654 141.769617,30.6245421 C142.884626,31.3462897 143.548103,32.4943645 143.759776,34.0690374 L138.917318,34.3278692 C138.788579,33.6443364 138.518364,33.147 138.106402,32.8361308 C137.694168,32.5255327 137.12528,32.3702336 136.399738,32.3702336 C135.802393,32.3702336 135.352215,32.4856916 135.050019,32.7171495 C134.747551,32.9483364 134.596318,33.2302056 134.596318,33.5614019 C134.596318,33.8034299 134.720991,34.0210654 134.970607,34.2140374 C135.212636,34.4145981 135.787215,34.6010654 136.694346,34.7737103 C138.940084,35.215757 140.548364,35.6629533 141.52,36.115028 C142.491364,36.5676449 143.198477,37.1286729 143.640523,37.7983832 C144.083112,38.4686355 144.304271,39.217486 144.304271,40.0465607 C144.304271,41.0203645 144.009393,41.9180093 143.419636,42.7397664 C142.829879,43.5620654 142.005682,44.1848879 140.947318,44.6098598 C139.888682,45.0345607 138.554411,45.2467757 136.943963,45.2467757 C134.116327,45.2467757 132.15815,44.7497103 131.06943,43.7553084 C129.98071,42.7606355 129.364664,41.4968318 129.220748,39.9633551" id="Fill-5" fill="#505050"/>
            <polyline id="Fill-6" fill="#505050" points="146.076523 29.8011589 151.21386 29.8011589 151.21386 35.1154766 156.827664 35.1154766 156.827664 29.8011589 161.987766 29.8011589 161.987766 44.9879439 156.827664 44.9879439 156.827664 38.8448224 151.21386 38.8448224 151.21386 44.9879439 146.076523 44.9879439 146.076523 29.8011589"/>
            <path d="M169.055907,37.4257196 C169.055907,38.9586542 169.367589,40.0603832 169.991495,40.7300935 C170.615402,41.4000748 171.463991,41.7350654 172.537533,41.7350654 C173.64143,41.7350654 174.495439,41.4068505 175.100645,40.7509626 C175.705308,40.0948037 176.007776,38.9174579 176.007776,37.2181121 C176.007776,35.7887103 175.692028,34.7441682 175.060804,34.084486 C174.429579,33.4250748 173.573402,33.0952336 172.492271,33.0952336 C171.456131,33.0952336 170.624617,33.4302243 169.996916,34.1002056 C169.369486,34.7699159 169.055907,35.8784206 169.055907,37.4257196 Z M163.91857,37.4048505 C163.91857,34.925486 164.674467,32.9952243 166.186533,31.6140654 C167.698598,30.2326355 169.804486,29.5420561 172.503654,29.5420561 C175.270579,29.5420561 177.402757,30.2207103 178.899645,31.5777477 C180.396804,32.934785 181.145112,34.8355047 181.145112,37.2807196 C181.145112,39.0556822 180.817981,40.5111028 180.164262,41.6469813 C179.510271,42.7834019 178.565196,43.6669533 177.329037,44.2987196 C176.092879,44.930757 174.552355,45.2467757 172.707467,45.2467757 C170.832495,45.2467757 169.28086,44.9743925 168.05229,44.4285421 C166.823449,43.8829626 165.827421,43.0197383 165.063935,41.8385981 C164.300178,40.657729 163.91857,39.1800841 163.91857,37.4048505 L163.91857,37.4048505 Z" id="Fill-7" fill="#505050"/>
            <path d="M188.213523,36.2757477 L189.472449,36.2757477 C190.462785,36.2757477 191.158514,36.1188224 191.559364,35.8044299 C191.959944,35.4900374 192.160234,35.0878318 192.160234,34.597271 C192.160234,34.1210748 191.986234,33.7167009 191.638505,33.3852336 C191.290776,33.0537664 190.636785,32.8881682 189.676804,32.8881682 L188.213523,32.8881682 L188.213523,36.2757477 Z M183.053692,29.8011589 L191.593243,29.8011589 C193.453037,29.8011589 194.846121,30.2049907 195.772495,31.0129252 C196.698327,31.8208598 197.161514,32.9708318 197.161514,34.4628411 C197.161514,35.9960467 196.657131,37.1942617 195.647551,38.057486 C194.638243,38.9209813 193.09772,39.3524579 191.026252,39.3524579 L188.213523,39.3524579 L188.213523,44.9879439 L183.053692,44.9879439 L183.053692,29.8011589 L183.053692,29.8011589 Z" id="Fill-8" fill="#505050"/>
            <path d="M195.399019,23.4078785 L56.9603364,23.4078785 L56.9603364,25.1695607 L195.399019,25.1695607 C202.030804,25.1695607 207.425888,30.5649159 207.425888,37.1964299 C207.425888,43.828215 202.030804,49.2232991 195.399019,49.2232991 L56.9603364,49.2232991 L56.9603364,50.9849813 L195.399019,50.9849813 C203.014364,50.9849813 209.18757,44.8117757 209.18757,37.1964299 C209.18757,29.5813551 203.014364,23.4078785 195.399019,23.4078785" id="Fill-9" fill="#505050"/>
            <g id="Group-13">
                <mask id="mask-2" fill="white">
                    <use xlink:href="#path-1"/>
                </mask>
                <g id="Clip-11"/>
                <path d="M42.7901776,35.3984299 C40.3910374,40.6693832 35.0780748,44.3336822 28.9092056,44.3336822 C20.4908037,44.3336822 13.6660467,37.5094673 13.6660467,29.0907944 C13.6660467,20.6723925 20.4908037,13.8476355 28.9092056,13.8476355 C34.9750841,13.8476355 40.213514,17.3910561 42.6674019,22.5205327 L36.4307757,22.5205327 C34.5999813,20.4265701 31.9089439,19.1039533 28.9092056,19.1039533 C23.393785,19.1039533 18.9223645,23.5751028 18.9223645,29.0907944 C18.9223645,34.606486 23.393785,39.0776355 28.9092056,39.0776355 C32.0325327,39.0776355 34.8214112,37.6438972 36.6524766,35.3984299 L42.7901776,35.3984299 Z M28.9092056,50.9039439 C40.9564019,50.9039439 50.7223551,41.1379907 50.7223551,29.0907944 C50.7223551,17.0435981 40.9564019,7.27737383 28.9092056,7.27737383 C16.8620093,7.27737383 7.09578505,17.0435981 7.09578505,29.0907944 C7.09578505,41.1379907 16.8620093,50.9039439 28.9092056,50.9039439 L28.9092056,50.9039439 Z" id="Fill-10" fill="#505050" mask="url(#mask-2)"/>
                <path d="M55.9786729,29.0907944 L55.9786729,50.1147103 C55.9786729,53.4537757 53.2721869,56.1602617 49.9331215,56.1602617 L28.9092056,56.1602617 C13.959028,56.1602617 1.83973832,44.0407009 1.83973832,29.0907944 C1.83973832,19.1389159 7.2548785,10.1397009 15.8022897,5.39996262 C19.7793551,3.19460748 24.2570093,2.0213271 28.9092056,2.0213271 C43.8593832,2.0213271 55.9786729,14.1406168 55.9786729,29.0907944 Z M0,29.0907944 C0,45.056785 12.9429439,58 28.9092056,58 L49.9331215,58 C54.288,58 57.8184112,54.4695888 57.8184112,50.1147103 L57.8184112,29.0907944 C57.8184112,13.1245327 44.8754673,0.181588785 28.9092056,0.181588785 C23.8306822,0.181588785 19.0578785,1.49119626 14.9100654,3.79114019 C6.01871963,8.72168224 0,18.2033271 0,29.0907944 Z" id="Fill-12" fill="#505050" mask="url(#mask-2)"/>
            </g>
        </g>
    </g>
</svg>