<?xml version="1.0" encoding="UTF-8"?>
<svg width="64px" height="64px" viewBox="0 0 64 64" version="1.1" xmlns="http://www.w3.org/2000/svg" xmlns:xlink="http://www.w3.org/1999/xlink">
    <!-- Generator: Sketch 43.2 (39069) - http://www.bohemiancoding.com/sketch -->
    <title>coolshop-logo</title>
    <desc>Created with Sketch.</desc>
    <defs>
        <polygon id="path-1" points="0 63.8484598 64 63.8484598 64 0 0 0"/>
    </defs>
    <g id="Page-1" stroke="none" stroke-width="1" fill="none" fill-rule="evenodd">
        <g id="coolshop-logo">
            <mask id="mask-2" fill="white">
                <use xlink:href="#path-1"/>
            </mask>
            <g id="Clip-2"/>
            <path d="M47.3649287,38.8922115 C44.7095172,44.7133425 38.8284322,48.760423 32,48.760423 C22.6814529,48.760423 15.127246,41.223577 15.127246,31.9264368 C15.127246,22.6292966 22.6814529,15.0925241 32,15.0925241 C38.7143356,15.0925241 44.5128092,19.0054253 47.229131,24.6704552 L40.3255172,24.6704552 C38.2991448,22.3579954 35.3205701,20.8973241 32,20.8973241 C25.8946943,20.8973241 20.9454345,25.8352552 20.9454345,31.9264368 C20.9454345,38.017692 25.8946943,42.9555494 32,42.9555494 C35.4573977,42.9555494 38.5441103,41.371954 40.5712184,38.8922115 L47.3649287,38.8922115 Z M32,56.0164046 C45.3351724,56.0164046 56.145508,45.2309333 56.145508,31.9264368 C56.145508,18.6219402 45.3351724,7.83646897 32,7.83646897 C18.6648276,7.83646897 7.85456552,18.6219402 7.85456552,31.9264368 C7.85456552,45.2309333 18.6648276,56.0164046 32,56.0164046 L32,56.0164046 Z" id="Fill-1" fill="#505050" mask="url(#mask-2)"/>
            <path d="M61.963623,31.9264368 L61.963623,55.1446805 C61.963623,58.8319632 58.9675402,61.8212046 55.2717241,61.8212046 L32,61.8212046 C15.4515126,61.8212046 2.03637701,48.4368184 2.03637701,31.9264368 C2.03637701,20.9359448 8.03038161,10.9974069 17.4917885,5.76301609 C21.8940322,3.32748506 26.8505011,2.03166897 32,2.03166897 C48.5484874,2.03166897 61.963623,15.4160552 61.963623,31.9264368 Z M16.5042759,3.98617011 C6.66203218,9.43131954 0,19.9026759 0,31.9264368 C0,49.5588782 14.3268782,63.8528736 32,63.8528736 L55.2717241,63.8528736 C60.0922483,63.8528736 64,59.954023 64,55.1446805 L64,31.9264368 C64,14.2939954 49.6731218,0 32,0 C26.3783724,0 21.0953563,1.44625287 16.5042759,3.98617011 L16.5042759,3.98617011 Z" id="Fill-3" fill="#505050" mask="url(#mask-2)"/>
        </g>
    </g>
</svg>